<?xml version="1.0" standalone="no"?><svg xmlns="http://www.w3.org/2000/svg" viewBox="0 0 1440 320"><path fill="#A1D6E2" fill-opacity="1" d="M0,96L18.5,117.3C36.9,139,74,181,111,181.3C147.7,181,185,139,222,101.3C258.5,64,295,32,332,58.7C369.2,85,406,171,443,202.7C480,235,517,213,554,208C590.8,203,628,213,665,224C701.5,235,738,245,775,240C812.3,235,849,213,886,197.3C923.1,181,960,171,997,149.3C1033.8,128,1071,96,1108,122.7C1144.6,149,1182,235,1218,240C1255.4,245,1292,171,1329,133.3C1366.2,96,1403,96,1422,96L1440,96L1440,0L1421.5,0C1403.1,0,1366,0,1329,0C1292.3,0,1255,0,1218,0C1181.5,0,1145,0,1108,0C1070.8,0,1034,0,997,0C960,0,923,0,886,0C849.2,0,812,0,775,0C738.5,0,702,0,665,0C627.7,0,591,0,554,0C516.9,0,480,0,443,0C406.2,0,369,0,332,0C295.4,0,258,0,222,0C184.6,0,148,0,111,0C73.8,0,37,0,18,0L0,0Z"></path></svg>