<?xml version="1.0" standalone="no"?>
<svg xmlns:xlink="http://www.w3.org/1999/xlink" id="wave" style="transform:rotate(0deg); transition: 0.3s" viewBox="0 0 1440 150" version="1.1" xmlns="http://www.w3.org/2000/svg"><defs><linearGradient id="sw-gradient-0" x1="0" x2="0" y1="1" y2="0"><stop stop-color="rgba(161, 214, 226, 1)" offset="0%"/><stop stop-color="rgba(161, 214, 226, 1)" offset="100%"/></linearGradient></defs><path style="transform:translate(0, 0px); opacity:1" fill="url(#sw-gradient-0)" d="M0,0L24,20C48,40,96,80,144,80C192,80,240,40,288,27.5C336,15,384,30,432,40C480,50,528,55,576,70C624,85,672,110,720,102.5C768,95,816,55,864,50C912,45,960,75,1008,80C1056,85,1104,65,1152,50C1200,35,1248,25,1296,20C1344,15,1392,15,1440,17.5C1488,20,1536,25,1584,45C1632,65,1680,100,1728,97.5C1776,95,1824,55,1872,50C1920,45,1968,75,2016,95C2064,115,2112,125,2160,125C2208,125,2256,115,2304,105C2352,95,2400,85,2448,87.5C2496,90,2544,105,2592,100C2640,95,2688,70,2736,72.5C2784,75,2832,105,2880,117.5C2928,130,2976,125,3024,125C3072,125,3120,130,3168,120C3216,110,3264,85,3312,82.5C3360,80,3408,100,3432,110L3456,120L3456,150L3432,150C3408,150,3360,150,3312,150C3264,150,3216,150,3168,150C3120,150,3072,150,3024,150C2976,150,2928,150,2880,150C2832,150,2784,150,2736,150C2688,150,2640,150,2592,150C2544,150,2496,150,2448,150C2400,150,2352,150,2304,150C2256,150,2208,150,2160,150C2112,150,2064,150,2016,150C1968,150,1920,150,1872,150C1824,150,1776,150,1728,150C1680,150,1632,150,1584,150C1536,150,1488,150,1440,150C1392,150,1344,150,1296,150C1248,150,1200,150,1152,150C1104,150,1056,150,1008,150C960,150,912,150,864,150C816,150,768,150,720,150C672,150,624,150,576,150C528,150,480,150,432,150C384,150,336,150,288,150C240,150,192,150,144,150C96,150,48,150,24,150L0,150Z"/></svg>